:SAMPLES-PER-SECOND 30
:FULLY-SPECIFIED
:DEGREES
108
root  -28.4348 36.976 9.82243 -5.77832 3.74939 -12.872
RightUpLeg  -22.1738 -6.03072 17.4573
RightLeg  41.1824 -7.16685 -6.96102
RightFoot  -14.5372 -0.309392 -7.69484
RightToes  -1.74624e-010 0 -3.6325e-017
Spine  13.4256 -3.88243 11.035
Spine1  3.96267 -4.2617 8.80818
HEad  -15.5547 7.64458 -6.02254
LeftShoulder1  8.52798 -11.2952 -50.3001
LeftArm  -2.82756 14.5184 -31.0331
LeftForeArm  -177.723 -70.1955 -154.73
LeftHand  -0.244104 0.0205437 5.32207
RightShoulder  5.48961 8.36513 40.1164
RightArm  -5.99768 -32.9935 18.5969
RightForeArm  140.799 73.3028 143.238
RightHand  0.410252 -11.5761 -8.52447
LeftUpLeg  -13.1797 -3.75133 10.9274
LeftLeg  79.2257 1.02651 8.26598
LeftFoot  -7.67575 0.0748229 -0.941109
LeftToes  9.06232e-013 -1.14826e-010 3.0111e-013
109
root  -28.5655 37.3197 11.5485 -5.34479 2.66977 -11.347
RightUpLeg  -18.6012 -6.17112 16.0486
RightLeg  40.1002 -6.08661 -5.77722
RightFoot  -17.1181 -0.456081 -6.70587
RightToes  -1.74624e-010 0 -3.6325e-017
Spine  12.2971 -2.27776 10.6429
Spine1  4.87513 -2.44571 7.50402
HEad  -16.0855 6.48804 -5.0974
LeftShoulder1  8.92625 -11.7409 -51.0982
LeftArm  -1.68848 21.3561 -28.2097
LeftForeArm  177.815 -70.4376 -153.799
LeftHand  -0.244104 0.0205437 5.32207
RightShoulder  5.95481 9.01089 41.3685
RightArm  -9.76194 -27.2368 25.3833
RightForeArm  150.62 73.2806 144.844
RightHand  0.253525 -11.0907 -6.13096
LeftUpLeg  -19.6337 -4.2599 10.5421
LeftLeg  78.2446 0.928158 6.97505
LeftFoot  -9.09479 0.0789291 -1.24631
LeftToes  9.06232e-013 -1.14826e-010 3.0111e-013
110
root  -28.7192 38.0192 13.3823 -4.40337 0.646072 -8.5045
RightUpLeg  -14.1178 -5.20409 13.1194
RightLeg  36.5585 -4.61142 -3.94432
RightFoot  -17.595 -0.456907 -6.17841
RightToes  -1.74624e-010 0 -3.6325e-017
Spine  10.6457 0.111565 9.87915
Spine1  5.20307 0.542923 4.0493
HEad  -16.1019 4.41441 -3.03986
LeftShoulder1  8.5517 -11.413 -50.028
LeftArm  2.44636 27.5383 -25.2402
LeftForeArm  175.519 -68.9132 -155.48
LeftHand  -0.244104 0.0205437 5.32207
RightShoulder  6.12612 9.30213 41.601
RightArm  -9.53772 -23.383 32.2892
RightForeArm  156.455 71.2977 149.532
RightHand  0.212639 -10.7316 -5.68096
LeftUpLeg  -24.1626 -2.87358 8.70375
LeftLeg  72.0686 1.58178 6.41456
LeftFoot  -10.6596 0.0728899 -1.50459
LeftToes  9.06232e-013 -1.14826e-010 3.0111e-013
111
root  -28.8921 38.9272 15.2444 -3.6004 -1.04439 -5.18369
RightUpLeg  -8.67876 -5.28643 9.28436
RightLeg  30.8638 -2.8601 -2.13256
RightFoot  -17.1863 -0.411989 -5.81901
RightToes  -1.74624e-010 0 -3.6325e-017
Spine  9.2876 2.64279 7.80887
Spine1  4.75023 3.45416 1.02336
HEad  -15.4824 1.88989 -0.918581
LeftShoulder1  7.93231 -10.8969 -48.0684
LeftArm  7.17423 32.7862 -22.5657
LeftForeArm  176.513 -67.2189 -157.518
LeftHand  -0.244104 0.0205437 5.32207
RightShoulder  6.22131 9.42251 41.8722
RightArm  -4.26661 -20.1688 35.3153
RightForeArm  153.659 69.4224 152.016
RightHand  0.258694 -10.3432 -6.99644
LeftUpLeg  -26.321 -0.934382 5.97695
LeftLeg  61.0313 3.40475 7.13255
LeftFoot  -11.7456 0.0636568 -1.93952
LeftToes  9.06232e-013 -1.14826e-010 3.0111e-013
112
root  -29.0248 39.8186 17.1013 -2.67792 -1.52635 -2.30873
RightUpLeg  -3.27133 -7.99514 5.12042
RightLeg  24.1635 0.422545 0.0439407
RightFoot  -15.573 -0.281755 -4.68606
RightToes  -1.74624e-010 0 -3.6325e-017
Spine  7.41612 4.51226 5.23309
Spine1  4.08586 5.37657 -1.03111
HEad  -13.4851 -0.457532 0.259216
LeftShoulder1  7.54313 -10.775 -46.0644
LeftArm  10.5878 38.1788 -19.9231
LeftForeArm  179.232 -65.7308 -159.273
LeftHand  -0.244104 0.0205437 5.32207
RightShoulder  6.30573 9.61546 41.8135
RightArm  3.25467 -17.773 35.3489
RightForeArm  154.793 67.9201 154.117
RightHand  0.127228 -9.96711 -4.70619
LeftUpLeg  -26.8659 1.25557 3.03125
LeftLeg  46.0724 6.18015 7.23109
LeftFoot  -11.2347 0.0712547 -2.91229
LeftToes  9.06232e-013 -1.14826e-010 3.0111e-013
113
root  -29.0655 40.4561 18.9114 -1.50053 -1.28433 -0.811951
RightUpLeg  0.519515 -11.1337 1.85791
RightLeg  19.739 4.35502 1.93041
RightFoot  -12.7437 -0.107074 -0.870888
RightToes  -1.74624e-010 0 -3.6325e-017
Spine  5.03841 5.34611 4.29509
Spine1  3.81942 6.39704 -3.2857
HEad  -10.9135 -1.92035 0.462881
LeftShoulder1  7.44498 -10.9827 -44.7649
LeftArm  12.6265 43.5754 -16.549
LeftForeArm  -179.695 -64.0271 -160.859
LeftHand  -0.244104 0.0205437 5.32207
RightShoulder  6.33692 9.90567 41.0571
RightArm  10.2129 -16.051 35.2586
RightForeArm  165.132 66.3504 157.106
RightHand  -0.184967 -10.2897 2.93305
LeftUpLeg  -26.6821 5.04447 0.140463
LeftLeg  29.7011 6.90762 4.88005
LeftFoot  -9.71042 0.108027 -3.5409
LeftToes  9.06232e-013 -1.14826e-010 3.0111e-013
114
root  -29.0246 40.673 20.6374 -1.01312 -1.35023 -0.739853
RightUpLeg  1.95471 -11.9598 0.509498
RightLeg  21.1629 5.68765 2.27589
RightFoot  -10.7631 -0.0923925 5.56241
RightToes  -1.74624e-010 0 -3.6325e-017
Spine  3.64333 5.52693 5.48615
Spine1  4.08682 7.01068 -5.80078
HEad  -9.47086 -2.27826 0.241392
LeftShoulder1  7.50151 -11.2089 -44.3966
LeftArm  13.2302 47.8709 -13.2207
LeftForeArm  178.799 -62.4097 -161.968
LeftHand  -0.244104 0.0205437 5.32207
RightShoulder  6.35508 10.2213 40.1559
RightArm  15.8183 -14.3572 35.5562
RightForeArm  174.679 64.93 159.518
RightHand  -0.399491 -9.73678 8.92985
LeftUpLeg  -25.483 8.87747 -1.62337
LeftLeg  15.7158 5.03018 1.03168
LeftFoot  -9.21288 0.125931 -3.84399
LeftToes  9.06232e-013 -1.14826e-010 3.0111e-013
115
root  -28.9512 40.4271 22.2986 -2.11551 -2.25005 -1.03734
RightUpLeg  1.70944 -9.23861 0.104287
RightLeg  29.1166 1.53097 0.580998
RightFoot  -10.8935 -0.112634 10.1273
RightToes  -1.74624e-010 0 -3.6325e-017
Spine  4.10757 5.57008 6.77194
Spine1  4.60382 7.4429 -7.23943
HEad  -9.35351 -1.89652 -0.22674
LeftShoulder1  7.53694 -11.3969 -44.0291
LeftArm  11.4721 51.197 -12.4954
LeftForeArm  177.863 -61.3145 -162.657
LeftHand  -0.244104 0.0205437 5.32207
RightShoulder  6.44266 10.5481 39.7248
RightArm  20.1499 -12.7096 35.1737
RightForeArm  175.162 63.7985 160.525
RightHand  -0.356071 -9.10997 9.00087
LeftUpLeg  -22.4832 5.45971 0.651708
LeftLeg  7.36024 8.91934 -2.45254
LeftFoot  -9.27021 0.138777 -4.50271
LeftToes  9.06232e-013 -1.14826e-010 3.0111e-013
116
root  -28.8778 39.7985 23.9312 -4.38771 -3.67314 -0.795837
RightUpLeg  0.434838 -6.18232 -0.700658
RightLeg  41.4703 -4.09717 -4.25677
RightFoot  -11.6179 -0.0573485 9.18681
RightToes  -1.74624e-010 0 -3.6325e-017
Spine  5.63826 5.50268 6.41614
Spine1  5.02789 7.47159 -6.81056
HEad  -9.74618 -0.977232 -0.988597
LeftShoulder1  7.35843 -11.3878 -42.9499
LeftArm  7.30511 54.0444 -15.4714
LeftForeArm  179.715 -60.3899 -163.44
LeftHand  -0.244104 0.0205437 5.32207
RightShoulder  6.54116 10.7845 39.659
RightArm  22.9745 -11.5218 34.1747
RightForeArm  170.869 62.6881 160.98
RightHand  -0.268285 -9.00506 6.70809
LeftUpLeg  -19.7014 4.16655 1.16241
LeftLeg  6.08946 10.7595 -2.91109
LeftFoot  -6.91606 0.231688 -4.90837
LeftToes  9.06232e-013 -1.14826e-010 3.0111e-013
117
root  -28.831 38.9041 25.4692 -6.7951 -4.57414 0.277206
RightUpLeg  -1.97512 -3.51617 -2.37458
RightLeg  55.0745 -6.94136 -10.8895
RightFoot  -11.3778 -0.0734053 5.30913
RightToes  -1.74624e-010 0 -3.6325e-017
Spine  7.53136 5.0198 4.10165
Spine1  4.98242 6.67712 -4.97643
HEad  -10.7727 0.429876 -1.64332
LeftShoulder1  6.97377 -10.8541 -42.1753
LeftArm  2.42761 54.8339 -19.7077
LeftForeArm  -178.136 -59.8665 -163.987
LeftHand  -0.244104 0.0205437 5.32207
RightShoulder  6.55262 10.7422 39.866
RightArm  23.8321 -10.8062 33.4968
RightForeArm  169.268 62.2646 161.166
RightHand  -0.268436 -9.18526 6.33825
LeftUpLeg  -19.5925 9.37628 -1.71244
LeftLeg  12.1085 6.39436 -1.08552
LeftFoot  -1.48792 0.312023 -3.6754
LeftToes  9.06232e-013 -1.14826e-010 3.0111e-013
118
root  -28.8331 37.9128 26.7739 -9.26729 -4.21335 2.19165
RightUpLeg  -4.82457 -1.21158 -5.18564
RightLeg  66.6232 -5.78503 -14.872
RightFoot  -10.7197 -0.0911631 3.16491
RightToes  -1.74624e-010 0 -3.6325e-017
Spine  10.6768 4.15803 0.428349
Spine1  4.132 5.15745 -2.81276
HEad  -12.7423 1.72895 -1.83383
LeftShoulder1  6.71905 -10.0751 -43.0113
LeftArm  -1.10839 51.1923 -21.6577
LeftForeArm  -178.93 -61.8316 -162.633
LeftHand  -0.244104 0.0205437 5.32207
RightShoulder  6.60917 10.537 40.8813
RightArm  22.3725 -10.8109 33.2764
RightForeArm  170.431 64.3534 159.565
RightHand  -0.282755 -9.1701 6.76145
LeftUpLeg  -21.7247 14.9421 -6.02882
LeftLeg  21.7844 0.541716 0.970724
LeftFoot  2.96272 0.0185905 -0.243696
LeftToes  9.06232e-013 -1.14826e-010 3.0111e-013
119
root  -28.8619 37.1255 27.8463 -12.1177 -3.25853 4.427
RightUpLeg  -7.15268 0.981876 -8.54205
RightLeg  74.0308 -3.66565 -15.3906
RightFoot  -10.5299 -0.0946139 3.24809
RightToes  -1.74624e-010 0 -3.6325e-017
Spine  15.2834 3.42145 -2.69995
Spine1  2.95474 3.85074 -1.74964
HEad  -14.6381 2.21933 -1.98223
LeftShoulder1  6.909 -9.89203 -44.9109
LeftArm  -3.69989 43.2768 -21.6662
LeftForeArm  175.707 -68.4183 -155.862
LeftHand  -0.244104 0.0205437 5.32207
RightShoulder  6.86954 10.4844 42.7812
RightArm  18.6328 -12.123 33.0824
RightForeArm  168.13 69.7804 153.274
RightHand  -0.226738 -9.32011 5.00828
LeftUpLeg  -22.2286 12.3008 -7.80062
LeftLeg  30.6132 2.64722 2.04699
LeftFoot  2.32097 -0.462105 3.84159
LeftToes  9.06232e-013 -1.14826e-010 3.0111e-013
120
root  -28.864 36.8449 28.7389 -14.313 -3.45476 5.59283
RightUpLeg  -9.83217 3.35259 -10.4636
RightLeg  76.5117 -3.00597 -15.6899
RightFoot  -10.3262 -0.0992641 3.33058
RightToes  -1.74624e-010 0 -3.6325e-017
Spine  18.6952 3.02885 -3.07149
Spine1  2.63876 3.46036 -2.41946
HEad  -15.2941 2.42912 -2.68025
LeftShoulder1  7.31567 -10.3071 -46.1868
LeftArm  -6.78453 34.0562 -22.8639
LeftForeArm  153.483 -78.021 -130.107
LeftHand  -0.244104 0.0205437 5.32207
RightShoulder  7.16493 10.5763 44.4222
RightArm  13.67 -14.3504 32.851
RightForeArm  153.7 76.739 135.952
RightHand  -0.157593 -10.4702 2.21278
LeftUpLeg  -20.8184 10.4723 -8.65019
LeftLeg  35.3019 4.79213 3.98487
LeftFoot  -1.3361 -0.531122 6.08677
LeftToes  9.06232e-013 -1.14826e-010 3.0111e-013
